# xmcd
#
# Track frame offsets: 
#        150
#        11200
#        21799
#        33544
#        47075
#        58749
#        69507
#        79671
#        92689
#        104769
#        115804
#        126492
#        137414
#        147741
#        159616
#        173282
#        185003
#        193691
#        203133
#        214782
#        224657
#        234726
#        245505
#        255089
#        266352
#        277944
#        287478
#        296257
#        305874
#        316966
#
# Disc length: 4393 seconds
#
# Revision: 0
# Processed by: cddbd v1.5.2PL0 Copyright (c) Steve Scherf et al.
# Submitted via: ExactAudioCopy v0.99pb4
#
DISCID=c711271e
DTITLE=Various Artist - Serious Soul 2 Male Group Rare Northern Soul
DYEAR=1975
DGENRE=Soul
TTITLE0=Caesars - Girl I Love You
TTITLE1=Caressors - I Can't Stay Away
TTITLE2=Caressors - Who Can It Be
TTITLE3=Greater Experience - Don't Forget To Remember
TTITLE4=Enjoyable - Shame
TTITLE5=Perfections - So Lonery
TTITLE6=Knights - I've Got The Feeling
TTITLE7=Ratations - Put A Dime On D-9
TTITLE8=Four Gents - Young Girl Beware
TTITLE9=Four Gents - Tomorrow May Never Come
TTITLE10=Gallahads - I've Got A Find A Way
TTITLE11=Hy-Tones - Bigger &Better
TTITLE12=Grand Prixs - I See Her Pretty Face
TTITLE13=Rayal Playboys - Arabia
TTITLE14=Appreciations - It's Better To Cry
TTITLE15=Agents - Trouble
TTITLE16=Chekkers - Lack Of Love
TTITLE17=King Sound and The Interpretators - High Notes
TTITLE18=Serviceman - Are You Angry
TTITLE19=Masters - I Made A Mistake
TTITLE20=Ramblers - So Sad
TTITLE21=Maridians - He Can't Dance
TTITLE22=Startones - I Love You Baby
TTITLE23=Steptones - Lonely Girl
TTITLE24=Arabians - Please Take A Chance On Me
TTITLE25=De-Lites - Lover
TTITLE26=Masters - I'm  Just A Man In Love
TTITLE27=Miracle Walkers - Love In My Soul
TTITLE28=Temptones - Girl I Love You
TTITLE29=Miracle Walkers - Stranger To Love
EXTD=
EXTT0=
EXTT1=
EXTT2=
EXTT3=
EXTT4=
EXTT5=
EXTT6=
EXTT7=
EXTT8=
EXTT9=
EXTT10=
EXTT11=
EXTT12=
EXTT13=
EXTT14=
EXTT15=
EXTT16=
EXTT17=
EXTT18=
EXTT19=
EXTT20=
EXTT21=
EXTT22=
EXTT23=
EXTT24=
EXTT25=
EXTT26=
EXTT27=
EXTT28=
EXTT29=
PLAYORDER=
